{"title":"Naina Tose Lage Video Song By Rahat Fateh Ali - Full HD 1080p - ","uid":12411718,"size":14880920,"categoryP":"video","categoryS":"music_videos","magnet":"?xt=urn:btih:2df2e7ff4ccb9a22ac34a9f26aca731186290a34&amp;dn=Naina+Tose+Lage+Video+Song+By+Rahat+Fateh+Ali+-+Full+HD+1080p+-+&amp;tr=udp%3A%2F%2Ftracker.openbittorrent.com%3A80&amp;tr=udp%3A%2F%2Fopen.demonii.com%3A1337&amp;tr=udp%3A%2F%2Ftracker.coppersurfer.tk%3A6969&amp;tr=udp%3A%2F%2Fexodus.desync.com%3A6969","seeders":1,"leechers":0,"uploader":"Aainul","files":5,"time":1442158625,"description":"Naina Tose Lage Video Song By Rahat Fateh Ali - Full HD 1080p - Team truHD HEVC \n\n\n\nTeam truHD HEVC Presents \n\n  \n\nSource: WEB-DL \n\nEncoder: truHD HEVC Encoding Team \n\nEncoded File Info: \n\nGeneral \n\nFormat : MPEG-4 \nFormat profile : Base Media \nCodec ID : iso4 \nFile size : 14.0 MiB \nDuration : 1mn 40s \nOverall bit rate : 1 169 Kbps \nEncoded date : UTC 2015-09-12 07:59:50 \nTagged date : UTC 2015-09-12 07:59:50 \n\nVideo \nID : 1 \nFormat : HEVC \nFormat/Info : High Efficiency Video Coding \nCodec ID : hvc1 \nCodec ID/Info : High Efficiency Video Coding \nDuration : 1mn 40s \nBit rate : 975 Kbps \nMaximum bit rate : 3 533 Kbps \nWidth : 1 920 pixels \nHeight : 1 080 pixels \nDisplay aspect ratio : 16:9 \nFrame rate mode : Constant \nFrame rate : 25.000 fps \nBits/(Pixel*Frame) : 0.019 \nStream size : 11.7 MiB (83%) \nTitle : Video \nEncoded date : UTC 2015-09-12 07:59:50 \nTagged date : UTC 2015-09-12 07:59:51 \n\nAudio \nID : 2 \nFormat : AC-3 \nFormat/Info : Audio Coding 3 \nMode extension : CM (complete main) \nFormat settings, Endianness : Big \nCodec ID : ac-3 \nDuration : 1mn 40s \nBit rate mode : Constant \nBit rate : 192 Kbps \nMaximum bit rate : 203 Kbps \nChannel(s) : 6 channels \nChannel positions : Front: L C R, Side: L R, LFE \nSampling rate : 48.0 KHz \nBit depth : 16 bits \nCompression mode : Lossy \nStream size : 2.30 MiB (16%) \nTitle : \nEncoded date : UTC 2015-09-12 07:59:51 \nTagged date : UTC 2015-09-12 07:59:51 \n\n\nScreenShots: \n\n &lt;a href=&quot;\nhttp://i.imgur.com/Q29IIcH.jpg&quot; rel=&quot;nofollow&quot; target=&quot;_NEW&quot;&gt;\nhttp://i.imgur.com/Q29IIcH.jpg&lt;/a&gt;\n\n\n\nLike Us On FB And Request Accepted\n\nKickAssTorrents:      &lt;a href=&quot;\nhttps://kat.cr/user/Aainul/&quot; rel=&quot;nofollow&quot; target=&quot;_NEW&quot;&gt;\nhttps://kat.cr/user/Aainul/&lt;/a&gt;\nGloTorrents:      &lt;a href=&quot;\nhttps://glodls.to/user/Aainul&quot; rel=&quot;nofollow&quot; target=&quot;_NEW&quot;&gt;\nhttps://glodls.to/user/Aainul&lt;/a&gt;\nThePirateBay:      &lt;a href=&quot;\nhttps://thepiratebay.vg/user/Aainul/&quot; rel=&quot;nofollow&quot; target=&quot;_NEW&quot;&gt;\nhttps://thepiratebay.vg/user/Aainul/&lt;/a&gt;\n1337x Torrents:      &lt;a href=&quot;\nhttp://1337.to/user/Aainul/&quot; rel=&quot;nofollow&quot; target=&quot;_NEW&quot;&gt;\nhttp://1337.to/user/Aainul/&lt;/a&gt;\n\n\nNote: All Videos Uploaded By Me Are For Review Purpose. If You Like IT, Google IT And Buy IT - Thanks\n\n\nKing Regards\ntruHD HEVC Team\n\nShare Among Friends And Relatives","torrent":{"xt":"urn:btih:2df2e7ff4ccb9a22ac34a9f26aca731186290a34","amp;dn":"Naina+Tose+Lage+Video+Song+By+Rahat+Fateh+Ali+-+Full+HD+1080p+-+","amp;tr":["udp%3A%2F%2Ftracker.openbittorrent.com%3A80","udp%3A%2F%2Fopen.demonii.com%3A1337","udp%3A%2F%2Ftracker.coppersurfer.tk%3A6969","udp%3A%2F%2Fexodus.desync.com%3A6969"],"infoHash":"2df2e7ff4ccb9a22ac34a9f26aca731186290a34","infoHashBuffer":{"type":"Buffer","data":[45,242,231,255,76,203,154,34,172,52,169,242,106,202,115,17,134,41,10,52]},"announce":[],"urlList":[]}}